<svg width="452" height="147" viewBox="0 0 452 147" fill="none" xmlns="http://www.w3.org/2000/svg">
<path d="M350.965 144.68C350.965 143.9 350.402 141.495 349.651 139.285C344.49 123.749 344.302 120.434 348.149 111.268C349.182 108.798 350.402 103.272 350.965 98.9819C351.997 90.8563 353.029 88.4511 357.44 84.8759L359.973 82.7307L368.044 84.0958C372.454 84.8759 380.243 85.851 385.31 86.241C397.51 87.151 398.073 87.3461 394.507 88.6462C392.912 89.2312 388.689 91.4414 385.029 93.5215C380.243 96.2517 377.709 97.2268 375.551 97.2268C372.454 97.2268 366.073 100.217 362.976 103.077C362.038 103.987 361.006 105.807 360.724 107.108C360.255 109.123 360.536 109.773 362.695 111.203C364.947 112.763 365.698 112.958 370.014 112.633C374.05 112.373 375.27 111.983 378.272 109.773C382.589 106.588 383.903 102.362 381.651 99.242L380.243 97.2918L385.967 93.7815C391.785 90.2713 395.351 88.7112 399.762 87.8011L402.108 87.3461L399.95 88.9062C398.824 89.7512 397.885 90.9213 397.885 91.4414C397.979 91.9614 398.448 91.7664 399.105 90.8563C401.545 87.9311 403.14 87.6711 415.715 88.1911C430.917 88.8412 448.372 88.7762 451.374 88.1261C452.782 87.8011 448.841 87.6061 441.052 87.5411C424.63 87.4761 423.034 86.761 420.501 78.3754C419.093 73.825 411.398 56.0137 409.521 53.0235C406.988 49.1882 399.574 41.1926 394.601 37.0973C391.973 34.9521 388.876 32.0269 387.656 30.5968C384.654 27.1515 381.838 25.0064 380.9 25.4614C379.305 26.1114 380.055 32.0269 382.495 38.6574C386.718 50.2933 399.48 72.0049 402.765 73.24C403.797 73.63 408.02 76.1002 412.149 78.7654C416.278 81.4306 420.032 83.5758 420.313 83.5758C420.688 83.5758 422.002 84.4858 423.222 85.6559L425.381 87.6711L414.213 87.2161C392.067 86.306 371.422 84.0308 368.044 82.1457C367.387 81.6906 365.51 80.1955 364.102 78.7004C361.1 75.7102 361.1 76.3602 365.229 66.6745C366.918 62.5142 367.293 60.369 367.199 52.0484C367.105 41.1926 365.885 35.6022 362.695 30.2718C361.475 28.3216 359.786 24.1613 358.847 20.9761C357.909 17.8558 356.783 15.3206 356.314 15.3206C354.906 15.3206 352.654 20.131 350.871 27.3465C349.839 31.2468 348.713 35.6672 348.337 37.0323L347.68 39.6325L342.988 34.2371C337.076 27.5416 335.387 25.9164 334.543 26.5015C334.167 26.7615 334.824 31.5069 336.044 37.0323C337.264 42.5577 338.39 46.978 338.672 46.848C338.859 46.653 338.296 42.9477 337.358 38.5274C336.513 34.042 335.95 29.9467 336.138 29.3617C336.326 28.7116 338.578 30.7268 341.956 34.6271C347.399 40.7375 347.586 41.1276 347.305 44.9629C347.023 50.4883 350.496 62.7742 353.874 67.8446C355.375 70.1848 356.877 71.9399 357.158 71.7449C357.44 71.4849 356.783 70.1848 355.844 68.8197C353.123 65.1794 351.246 60.174 349.557 52.2434C347.868 43.7928 348.337 42.0376 351.622 45.8079C353.029 47.4981 354.343 50.6833 355.281 54.4536C358.66 69.3397 358.847 70.0548 357.815 71.9399C357.252 72.915 357.158 73.825 357.534 73.9551C358.003 74.0851 360.255 76.0352 362.695 78.3104C367.105 82.4707 367.105 82.4707 364.384 82.0157C362.976 81.7556 355 79.7405 346.742 77.4653C338.484 75.1901 329.851 72.85 327.505 72.2649C316.9 69.5997 314.836 67.5196 310.989 55.1036C309.769 51.0733 308.079 46.978 307.329 46.0029C306.484 45.0279 304.42 42.7527 302.824 40.8676C301.135 38.9824 298.414 35.6672 296.631 33.522C294.473 30.9218 290.25 27.6066 284.056 23.5763C278.895 20.326 269.136 13.6955 262.285 9.01516C255.529 4.2698 249.617 0.369507 249.241 0.369507C247.271 0.369507 255.81 13.7605 263.693 23.1212C265.945 25.7864 270.355 31.4418 273.358 35.6672C279.27 43.8578 280.115 44.5078 299.634 57.5088C304.701 60.8891 308.643 63.7493 308.361 63.8793C307.892 64.2043 299.352 60.629 293.253 57.5088C286.121 53.8685 278.332 51.7234 267.446 50.2933C262.004 49.5782 256.561 48.6681 255.341 48.2781C251.681 47.043 245.3 42.5577 242.766 39.3724L240.42 36.4472L242.672 34.6271C245.488 32.3519 245.581 29.5567 242.954 26.5665C240.514 23.9013 236.948 22.5362 230.942 22.0161C227.095 21.6911 226.063 21.8861 224.373 23.0562C221.464 25.0714 221.746 28.4516 225.218 31.9619C228.502 35.2121 232.162 36.7723 236.76 36.7723C239.669 36.7723 240.139 37.0973 242.579 40.3475C243.986 42.3627 246.895 45.0279 249.054 46.263C251.118 47.5631 252.244 48.4731 251.493 48.2781C250.743 48.1481 245.206 47.4981 239.294 46.848C233.382 46.263 227.846 45.5479 227.095 45.2879C226.344 45.0279 223.341 42.6877 220.526 40.0875C215.646 35.6672 209.265 32.0269 199.13 27.8666C193.875 25.7214 176.984 20.8461 167.506 18.7659C163.377 17.8558 155.87 15.9707 150.802 14.6056C141.23 11.9404 139.823 11.6804 139.823 12.6554C139.823 13.1755 162.814 27.4115 171.729 32.3519C180.268 37.0323 192.655 40.5425 211.799 43.6628C217.617 44.5728 222.403 45.4179 222.403 45.6129C222.403 45.7429 216.209 45.6779 208.514 45.5479C196.034 45.2879 196.972 45.4179 217.711 46.523C230.379 47.173 243.329 48.2131 246.426 48.7332C249.617 49.2532 255.153 50.0332 258.625 50.4233C267.728 51.3984 289.124 56.4037 287.904 57.2488C286.778 58.0939 271.763 59.0689 258.062 59.1989C244.268 59.2639 241.828 59.459 235.54 60.9541C231.693 61.8641 227.001 62.8392 225.218 63.0992C223.435 63.3593 217.523 64.8544 212.08 66.3495C201.007 69.4697 194.063 70.8998 187.212 71.5499C180.456 72.1349 175.389 73.305 175.764 74.0851C176.608 75.7752 184.866 76.5553 205.324 76.8803C223.529 77.2053 226.719 77.0753 230.379 76.1002C234.227 75.1251 234.977 75.1251 239.013 75.9702C245.394 77.3353 249.804 77.8553 249.147 77.0753C248.772 76.6853 250.743 76.4252 254.121 76.4252C257.124 76.4252 262.097 76.1002 265.194 75.7752C276.267 74.4751 277.394 74.4101 275.892 75.1251C274.86 75.6452 275.141 75.7102 277.3 75.3852C278.801 75.1251 280.209 74.7351 280.396 74.4751C280.584 74.1501 281.616 74.0851 282.742 74.2801C284.432 74.5401 284.525 74.4751 283.399 73.825C282.179 73.24 282.273 73.11 283.869 73.305C284.901 73.435 288.467 72.655 291.845 71.4849C309.487 65.5694 308.643 65.7644 310.895 67.1945C314.273 69.2747 320.936 71.6799 329.851 74.0201C334.449 75.2551 339.141 76.4902 340.173 76.7503C341.956 77.2053 341.956 77.2703 339.704 77.7253C335.669 78.6354 323.657 78.4404 314.93 77.3353C305.64 76.2302 303.387 76.3602 288.561 79.0254C282.836 80.0005 276.549 81.0406 274.484 81.3006C270.543 81.7556 251.306 86.566 236.385 90.7913C231.411 92.2214 224.467 94.0416 220.901 94.8866C211.705 97.0318 212.268 98.0719 222.872 98.5919C243.611 99.632 266.883 98.9169 283.962 96.6418C289.03 95.9267 319.716 85.851 328.443 81.9507C331.258 80.7156 336.044 79.3505 338.953 78.8954C343.833 78.1804 344.584 78.2454 349.651 79.8055C352.748 80.7156 355.938 81.6256 356.877 81.8857C358.378 82.2107 357.909 82.7957 353.592 86.176C350.871 88.3861 346.648 91.0513 344.208 92.0914C340.455 93.7815 339.047 95.0166 335.575 99.827C330.32 107.108 328.724 113.153 330.132 119.719C331.634 126.219 334.449 131.094 339.328 135.45C341.674 137.465 344.959 140.715 346.742 142.6C350.308 146.306 350.965 146.631 350.965 144.68ZM341.862 136.425C340.924 135.255 339.892 134.28 339.516 134.28C338.202 134.28 334.918 129.014 333.041 124.074C329.851 115.363 330.977 108.733 336.889 100.477C338.859 97.8119 341.393 95.0166 342.519 94.3016C344.584 93.0665 344.584 93.1315 342.238 96.3167C339.235 100.412 337.827 106.002 337.827 113.803C337.827 117.053 337.452 120.694 337.076 121.929C336.607 123.229 336.795 125.439 337.452 127.129L338.484 130.054V125.504C338.484 123.034 338.859 116.663 339.422 111.398C340.361 102.817 340.736 101.387 343.457 97.2918C345.147 94.8216 347.774 91.9614 349.369 90.9213C351.622 89.4262 352.091 89.3612 351.528 90.4013C351.059 91.1163 350.214 95.3417 349.463 99.827C348.713 104.247 347.211 110.098 346.179 112.763C343.833 118.613 344.114 126.024 347.117 135.905C348.149 139.48 349.088 142.535 349.088 142.73C349.088 143.315 343.457 138.44 341.862 136.425ZM363.633 110.748C361.475 109.578 361.193 108.993 361.569 107.173C362.319 103.987 365.322 101.517 371.047 99.437C375.457 97.8769 376.489 97.6818 378.554 98.3969C383.058 99.762 381.088 105.547 374.706 110.033C370.953 112.568 367.387 112.828 363.633 110.748ZM220.432 97.1618C219.306 96.7068 219.4 96.5768 220.526 96.5768C221.371 96.5768 224.28 95.7317 227.095 94.7566C235.071 91.8964 270.074 82.9907 276.361 82.2107C279.458 81.8206 285.558 80.8456 289.874 79.9355C301.229 77.7253 307.516 77.4653 319.528 78.8954L329.851 80.0655L325.909 80.9756C323.751 81.4306 322.156 82.0807 322.437 82.3407C322.719 82.6657 315.211 85.5259 305.733 88.7762C289.405 94.3016 287.904 94.6916 277.3 95.8617C271.106 96.5768 264.162 97.2918 261.816 97.4218C253.37 97.9419 221.746 97.7468 220.432 97.1618ZM415.621 79.9355C415.433 80.1305 411.867 77.9854 407.832 75.2551C401.263 70.7698 400.137 69.5997 396.759 64.0743C386.718 47.4981 380.055 31.8319 381.651 28.5816L382.495 26.8265L385.404 30.0117C386.906 31.7669 390.753 35.3421 393.944 37.9423C404.454 46.588 408.301 51.9184 414.12 65.6994C416.935 72.5249 419.656 79.0904 419.938 80.3255L420.595 82.6007L418.342 81.1056C417.029 80.3255 415.809 79.8055 415.621 79.9355ZM183.083 74.7351C177.547 74.2151 179.142 73.565 189.089 72.2649C193.687 71.6799 202.321 69.8597 208.233 68.2346C214.051 66.6745 224.843 64.2043 232.068 62.7742C244.455 60.369 246.051 60.174 257.968 60.109C265.007 60.109 272.701 59.849 275.141 59.589C277.675 59.329 279.646 59.1339 279.646 59.2639C279.646 59.719 266.883 64.2043 260.408 66.0245C252.995 68.1046 252.713 68.1046 233.664 68.3646C223.06 68.4946 214.239 68.6246 214.051 68.6246C213.863 68.6246 214.426 69.2097 215.365 69.9248C216.303 70.6398 220.057 71.8099 223.623 72.59C230.004 73.89 230.848 74.8001 226.156 75.2551C222.684 75.5802 187.869 75.1251 183.083 74.7351ZM238.637 74.6051C237.887 74.2801 240.983 73.11 247.083 71.4199L256.655 68.7547L273.546 68.3646C282.836 68.1046 292.502 67.7796 295.129 67.5846L299.821 67.2596L296.349 68.5596C290.719 70.7698 279.083 73.175 269.98 74.0851C260.408 75.0601 240.42 75.3852 238.637 74.6051ZM359.41 73.825C359.41 73.5 359.598 73.175 359.786 73.175C360.067 73.175 360.536 73.5 360.818 73.825C361.1 74.2151 360.912 74.4751 360.443 74.4751C359.88 74.4751 359.41 74.2151 359.41 73.825ZM225.5 71.8099C221.464 71.0298 217.805 70.1848 217.242 69.8597C216.772 69.5347 222.121 69.2747 230.379 69.2747C238.168 69.2747 245.488 69.0797 246.801 68.8197C250.555 68.1696 248.209 69.3397 241.828 71.2899C234.79 73.5 234.602 73.5 225.5 71.8099ZM359.41 68.5596C359.41 66.8045 358.847 63.2292 358.097 60.629C357.346 58.0289 356.501 54.6486 356.126 53.0235C355.375 49.5132 354.061 46.978 351.434 43.9228C349.557 41.8426 349.463 41.1926 350.214 36.7723C351.246 30.7918 354.625 17.8558 355.469 16.9458C356.22 16.1657 357.252 19.2209 357.44 22.3412C357.44 23.5763 358.847 26.5015 360.443 28.8417C364.853 35.4071 366.261 41.8426 365.604 52.8935C365.229 59.394 364.478 63.8143 363.07 67.3896C360.912 73.045 359.41 73.5 359.41 68.5596ZM264.631 66.0245C266.977 65.3744 272.983 63.3593 278.05 61.5391C283.118 59.719 287.998 58.2239 289.03 58.2239C290.813 58.2239 305.827 64.0743 305.921 64.7894C305.921 65.1144 300.76 65.8294 289.968 66.9345C288.654 67.0645 281.523 67.1945 274.015 67.1945L260.408 67.2596L264.631 66.0245ZM310.707 64.5293C309.675 63.3593 303.294 58.6139 296.443 53.9986C283.493 45.2229 278.05 40.2175 272.42 31.7669C270.637 29.0367 267.446 24.9414 265.288 22.5362C261.628 18.3759 252.432 5.50489 252.432 4.46482C252.432 4.2048 255.059 5.82992 258.344 8.17009C261.534 10.5103 270.543 16.5557 278.238 21.5611C286.871 27.2165 293.534 32.1569 295.599 34.4321C297.382 36.4472 300.948 40.2825 303.387 42.8827C307.329 47.108 308.079 48.4731 309.769 54.7136C310.801 58.6139 312.302 62.9042 313.053 64.2693C314.648 67.2596 313.335 67.4546 310.707 64.5293ZM205.699 41.5826C192.374 39.0474 181.77 36.1222 175.576 33.262C169.758 30.5318 149.207 17.9858 149.488 17.2708C149.582 16.9458 148.832 16.2307 147.799 15.6457C145.172 14.1505 148.269 14.9306 182.427 24.1613C199.975 28.9067 213.769 35.0821 219.4 40.6075L223.341 44.5728L220.338 44.1178C218.649 43.9228 212.08 42.7527 205.699 41.5826ZM232.819 35.4071C229.159 34.4971 223.341 29.4267 223.341 27.1515C223.341 23.4462 228.784 22.1461 236.479 23.9663C240.139 24.8764 243.986 28.3216 243.986 30.7268C243.986 32.4819 239.294 36.1222 237.136 36.1222C236.385 36.1222 234.508 35.7972 232.819 35.4071Z" fill="#DBAF96"/>
<path d="M339.61 131.289C339.61 130.574 339.328 130.379 339.047 130.899C338.765 131.354 338.859 131.939 339.141 132.134C339.422 132.394 339.704 132.004 339.61 131.289Z" fill="#DBAF96"/>
<path d="M364.853 107.367C366.261 105.222 365.885 104.507 364.196 105.937C363.539 106.457 363.164 107.432 363.352 108.018C363.539 108.928 363.915 108.733 364.853 107.367Z" fill="#DBAF96"/>
<path d="M231.036 95.4717C230.473 95.3416 229.347 95.3416 228.69 95.4717C228.127 95.6667 228.596 95.7967 229.91 95.7967C231.224 95.7967 231.693 95.6667 231.036 95.4717Z" fill="#DBAF96"/>
<path d="M236.667 94.8216C236.104 94.6916 234.977 94.6916 234.321 94.8216C233.758 95.0166 234.227 95.1467 235.54 95.1467C236.854 95.1467 237.323 95.0166 236.667 94.8216Z" fill="#DBAF96"/>
<path d="M246.708 93.6515C249.523 93.1315 255.059 92.5465 258.907 92.3515C269.229 91.7014 281.241 90.1413 286.684 88.6462C289.217 87.9311 294.285 86.761 297.945 86.111C302.637 85.2009 303.387 84.9409 300.478 85.2009C298.32 85.3959 292.783 86.436 288.279 87.4761C283.212 88.6462 274.015 90.0113 264.162 90.9863C247.834 92.6115 238.356 93.8466 238.356 94.3666C238.356 94.8216 241.265 94.5616 246.708 93.6515Z" fill="#DBAF96"/>
<path d="M308.455 84.4209C307.61 84.2909 306.297 84.2909 305.64 84.4209C305.077 84.6159 305.733 84.7459 307.329 84.7459C308.83 84.7459 309.393 84.6159 308.455 84.4209Z" fill="#DBAF96"/>
<path d="M313.616 83.7708C312.959 83.5758 312.115 83.6408 311.833 83.8358C311.458 84.0308 312.021 84.2259 313.053 84.1609C314.085 84.1609 314.367 83.9658 313.616 83.7708Z" fill="#DBAF96"/>
<path d="M411.398 74.2801C411.117 73.6301 410.554 73.305 410.272 73.5001C409.991 73.6951 410.272 74.2151 410.929 74.6701C411.867 75.2552 411.961 75.1902 411.398 74.2801Z" fill="#DBAF96"/>
<path d="M409.146 70.7697C409.146 69.6646 386.343 38.6573 385.874 39.0473C385.592 39.2424 386.53 40.8675 388.032 42.7526C389.439 44.6378 394.788 51.9183 399.856 58.8738C405.017 65.8294 409.146 71.1598 409.146 70.7697Z" fill="#DBAF96"/>
<path d="M384.654 35.0822C384.654 34.3671 384.372 34.1721 384.091 34.6921C383.809 35.1472 383.903 35.7322 384.184 35.9272C384.466 36.1872 384.747 35.7972 384.654 35.0822Z" fill="#DBAF96"/>
<path d="M383.621 32.2219C383.621 31.3119 383.434 30.9868 383.152 31.4419C382.964 31.8319 382.964 32.612 383.152 33.067C383.434 33.457 383.621 33.132 383.621 32.2219Z" fill="#DBAF96"/>
<path d="M364.853 43.5977C364.853 42.5577 364.666 42.1676 364.384 42.8177C364.196 43.4027 364.196 44.3128 364.384 44.7678C364.666 45.1579 364.853 44.7028 364.853 43.5977Z" fill="#DBAF96"/>
<path d="M363.07 35.7972C363.07 35.4721 362.507 34.4321 361.756 33.522C361.006 32.6119 360.443 32.2219 360.443 32.5469C360.443 32.937 361.006 33.912 361.756 34.8221C362.507 35.7322 363.07 36.1872 363.07 35.7972Z" fill="#DBAF96"/>
<path d="M360.349 31.2469C360.349 30.9218 359.88 30.1418 359.41 29.6217C358.941 29.1017 358.472 28.9717 358.472 29.2967C358.472 29.6867 358.941 30.4018 359.41 30.9218C359.88 31.4419 360.349 31.6369 360.349 31.2469Z" fill="#DBAF96"/>
<path d="M202.039 37.3572C201.382 36.9022 200.632 36.7072 200.35 36.9022C200.069 37.0972 200.538 37.4872 201.476 37.6823C202.79 38.0723 202.884 38.0073 202.039 37.3572Z" fill="#DBAF96"/>
<path d="M194.72 34.8221C193.875 33.912 182.708 29.7517 177.078 28.3216C174.169 27.5415 169.007 25.5914 165.535 23.9662C162.063 22.3411 159.529 21.301 159.905 21.6911C160.843 22.7962 172.855 28.1266 175.482 28.6466C176.796 28.9066 181.77 30.5317 186.556 32.2219C191.341 33.977 195.001 35.1471 194.72 34.8221Z" fill="#DBAF96"/>
<path d="M158.216 20.586C157.559 19.8709 153.899 18.3108 153.899 18.7659C153.899 18.9609 155.025 19.5459 156.339 20.196C157.746 20.781 158.497 20.976 158.216 20.586Z" fill="#DBAF96"/>
<path d="M404.36 113.283C405.674 112.828 407.363 111.138 408.395 109.253C411.774 103.337 408.114 97.1618 400.513 96.1217C398.448 95.8617 397.885 95.4066 397.791 94.0415C397.698 92.7414 397.604 92.6114 397.228 93.6515C396.947 94.3666 395.539 95.8617 393.944 96.9668C390.566 99.502 389.627 103.142 391.41 107.303C392.161 108.928 393.756 110.943 394.976 111.723L397.322 113.153L395.351 111.398C392.724 108.993 390.941 104.247 391.692 101.582C393.569 94.4966 404.736 95.0816 407.269 102.427C408.677 106.522 407.363 109.838 403.234 112.373C400.137 114.258 400.607 114.648 404.36 113.283Z" fill="#DBAF96"/>
<path d="M76.9495 101.127C79.7647 100.087 81.7354 99.2419 81.36 99.1769C80.9847 99.1769 78.5448 99.892 76.0111 100.802C70.8499 102.622 70.0053 102.232 73.7589 99.7619C75.0727 98.9169 77.7002 96.7717 79.5771 94.9516C92.9963 82.1456 108.574 70.5097 119.459 65.2444C144.703 53.0234 150.145 50.2282 149.77 49.9682C149.582 49.8382 145.641 51.5283 141.043 53.8035C136.538 56.1437 128.75 59.8489 123.87 62.0591C108.48 69.2097 104.914 71.4198 94.6854 80.6505C88.9611 85.8509 81.36 92.3514 74.885 97.7468C70.756 101.192 69.3484 103.142 71.0375 103.077C71.5067 103.012 74.1343 102.167 76.9495 101.127Z" fill="#DBAF96"/>
<path d="M94.7792 94.7566C110.357 88.9711 117.207 85.6559 124.714 80.2605C130.626 76.0352 131.377 75.7101 137.289 74.8001C140.761 74.28 146.392 73.37 149.958 72.7849C153.43 72.1999 157.277 71.6148 158.591 71.4198C159.905 71.2898 163.94 69.9897 167.506 68.6246C171.166 67.2595 176.796 65.1794 180.174 64.0093C183.553 62.9042 186.462 61.6691 186.556 61.3441C186.931 60.824 193.594 58.2238 194.72 58.2238C195.001 58.2238 195.001 58.5489 194.626 59.0039C194.251 59.4589 194.344 59.5239 195.095 59.2639C195.658 59.0039 195.94 58.4839 195.658 58.1588C195.283 57.8338 195.658 57.5738 196.409 57.5738C197.066 57.5738 199.036 56.2087 200.726 54.5186C203.728 51.4633 203.728 51.4633 201.007 53.5435C198.473 55.4936 185.899 60.499 165.16 67.7796C159.623 69.7297 153.524 71.1598 144.984 72.4599C138.321 73.565 132.785 74.345 132.597 74.215C132.409 74.15 133.348 73.24 134.662 72.2649C135.975 71.2898 137.008 70.3797 137.008 70.1847C137.008 70.0547 138.04 68.8196 139.354 67.4545C141.137 65.5694 143.952 64.2693 152.21 61.3441C166.755 56.2737 189.934 50.9433 198.004 50.8133C202.884 50.7483 204.573 50.4883 206.262 49.3182L208.514 47.8881L205.324 48.4731C203.635 48.7981 198.661 49.5782 194.251 50.0982C183.271 51.5283 165.535 55.7537 154.556 59.5889C145.453 62.7742 144.327 62.9042 146.861 60.564C147.612 59.849 148.269 59.0039 148.269 58.6139C148.269 58.2238 146.955 59.2639 145.359 60.889C142.45 63.8143 140.198 64.7893 126.216 69.8597C116.081 73.565 110.732 75.8402 110.732 76.5552C110.732 76.9452 113.923 77.1403 119.084 76.9452C128.75 76.6852 128.75 76.8152 121.336 81.6906C116.456 85.0058 102.756 91.1813 92.4332 94.8216C86.6151 96.8367 81.2662 99.1769 82.5799 99.1119C82.8615 99.1119 88.3042 97.0968 94.7792 94.7566ZM114.955 75.8402C115.237 75.5151 116.926 74.8651 118.709 74.4751C120.492 74.085 121.805 73.5 121.524 73.175C121.242 72.8499 122.838 72.0699 124.996 71.3548C127.248 70.7048 131.096 69.2097 133.629 68.1046C136.163 66.9345 138.415 66.1544 138.697 66.2844C139.635 66.9345 135.412 70.6398 133.442 71.0298C132.128 71.2248 131.659 71.5498 132.222 71.8099C132.879 72.1349 132.503 72.7849 131.096 73.695C129.594 74.6701 126.967 75.2551 122.462 75.7101C118.802 75.9702 115.518 76.2952 115.143 76.3602C114.674 76.3602 114.58 76.1652 114.955 75.8402Z" fill="#DBAF96"/>
<path d="M269.511 76.6202C268.854 76.4252 268.009 76.4902 267.728 76.6852C267.353 76.8802 267.916 77.0752 268.948 77.0102C269.98 77.0102 270.262 76.8152 269.511 76.6202Z" fill="#DBAF96"/>
<path d="M351.059 69.4047C344.771 64.0093 343.551 61.8642 339.422 48.7982C339.047 47.7581 338.953 47.8231 338.859 49.1232C338.672 51.7234 343.364 62.8392 345.804 65.6995C347.023 67.1296 349.745 69.4697 351.997 70.8998C355.844 73.435 355.844 73.435 351.059 69.4047Z" fill="#DBAF96"/>
<path d="M18.299 70.8348C23.9294 70.3797 32.8443 69.6647 38.0056 69.2747C53.5831 68.1046 72.0698 64.5293 85.1137 60.174C91.4948 58.0938 96.6561 56.2087 96.6561 55.9487C96.6561 55.7536 92.5271 57.0537 87.4597 58.7439C68.5038 65.3094 45.6067 68.8196 12.1993 70.3147L4.22287 70.6398L11.2609 68.5596C15.1084 67.3895 22.0526 65.0493 26.7447 63.3592C35.6595 60.109 42.6976 58.1588 49.7357 56.9237C52.0817 56.5337 55.9292 55.6236 58.2752 54.9736C66.4393 52.6334 85.5829 50.3582 95.53 50.5533L104.633 50.7483L95.7177 52.8284C90.838 53.9335 82.3923 55.6236 76.9495 56.5337C67.6593 58.0288 50.7679 61.9941 53.2078 62.0591C53.8647 62.1241 56.4922 61.5391 59.0259 60.824C61.6535 60.109 69.8176 58.5489 77.1372 57.3138C84.5506 56.0137 94.3101 54.1285 98.9083 53.0234C109.043 50.6833 109.794 50.6183 103.882 52.7634C101.442 53.6085 99.4713 54.5186 99.4713 54.6486C99.4713 54.8436 102.474 53.9335 106.228 52.6334L112.984 50.2932L131.377 49.7082C147.705 49.1231 149.77 49.1882 150.802 50.0982C151.741 51.0733 151.928 51.0733 152.773 49.9682C153.43 49.1882 155.776 48.5381 159.717 48.0181L165.629 47.238L160.468 47.433C154.087 47.693 150.615 46.848 140.104 42.4926C135.506 40.5425 129.688 38.4623 127.154 37.8773C124.527 37.2273 119.084 35.7321 114.955 34.497C102.756 30.9868 95.7177 30.2717 72.2575 30.2717C56.023 30.2717 51.5186 30.4667 51.8002 31.1168C52.0817 31.5068 58.0875 33.717 65.3132 35.9272C81.8292 41.0625 107.917 45.9379 117.958 45.7429L124.339 45.6779L116.363 45.2229C105.477 44.6378 82.0169 40.0875 67.5654 35.6671C61.0904 33.717 55.5538 31.8969 55.1784 31.6368C53.5831 30.6618 88.5858 30.8568 96.8438 31.8969C108.48 33.262 128.468 38.8524 141.794 44.3128L148.362 46.978L142.45 47.823C139.166 48.2781 124.527 48.8631 109.794 49.1231C85.9582 49.5782 81.8292 49.7732 72.2575 51.3333C56.2107 53.8035 33.2197 59.1989 26.7447 61.9291C23.7418 63.2292 17.1729 65.5044 12.1993 66.9995C1.68918 70.1197 0.750763 70.4448 1.40765 71.2898C2.15837 72.0049 5.34897 71.9399 18.299 70.8348Z" fill="#DBAF96"/>
<path d="M191.435 60.4991C192.749 59.979 193.312 59.589 192.843 59.589C192.28 59.589 190.872 59.979 189.558 60.4991C188.245 61.0191 187.588 61.4091 188.151 61.4091C188.62 61.4091 190.122 61.0191 191.435 60.4991Z" fill="#DBAF96"/>
<path d="M189.746 46.068C189.183 45.938 188.057 45.938 187.4 46.068C186.837 46.263 187.306 46.393 188.62 46.393C189.934 46.393 190.403 46.263 189.746 46.068Z" fill="#DBAF96"/>
<path d="M128.75 46.068C128.187 45.938 127.061 45.938 126.404 46.068C125.841 46.263 126.31 46.393 127.624 46.393C128.937 46.393 129.407 46.263 128.75 46.068Z" fill="#DBAF96"/>
</svg>
