<svg width="75" height="68" viewBox="0 0 75 68" fill="none" xmlns="http://www.w3.org/2000/svg">
<path fill-rule="evenodd" clip-rule="evenodd" d="M47.6639 30.6736L66.347 40.8214L38.329 66.1796L47.6639 30.6736ZM8.6525 40.8214L27.3356 30.6736L36.671 66.1796L8.6525 40.8214ZM18.4391 1.34869L26.9291 29.2615L1.25294 20.0319L18.4391 1.34869ZM36.8909 8.7533L34.4076 14.1565L27.7148 28.7183L19.3626 1.25791L36.8909 8.7533ZM55.6374 1.25791L47.2847 28.7183L40.5919 14.1565L38.1086 8.7533L55.6374 1.25791ZM48.071 29.2615L56.5604 1.34869L73.7466 20.0319L48.071 29.2615ZM66.8809 40.0754L48.4817 30.0814L73.7884 20.9844L66.8809 40.0754ZM26.5183 30.0814L8.1187 40.0754L1.21157 20.9844L26.5183 30.0814ZM37.9545 64.0244V10.5976L46.8899 30.0386L39.1736 59.3875L37.9545 64.0244ZM28.1096 30.0386L37.0451 10.5976V64.0244L35.826 59.3875L28.1096 30.0386ZM75 20.2337C75 20.228 75 20.2219 74.9995 20.2163C74.9986 20.1838 74.9948 20.1514 74.9873 20.1203C74.9864 20.1151 74.9845 20.1109 74.9831 20.1062C74.9742 20.0742 74.9624 20.0427 74.9469 20.0126C74.9464 20.0126 74.9464 20.0121 74.946 20.0112C74.9295 19.9816 74.9093 19.9538 74.8868 19.9279C74.8844 19.9256 74.883 19.9228 74.8806 19.9199L56.6915 0.146429C56.6864 0.140319 56.6798 0.135599 56.6741 0.129949C56.6694 0.125249 56.6657 0.120089 56.661 0.115859C56.6586 0.113979 56.6568 0.113029 56.6544 0.111149C56.6445 0.102209 56.6342 0.0946695 56.6234 0.0871495C56.6173 0.0824395 56.6107 0.0777594 56.6046 0.0730494C56.5919 0.0650594 56.5792 0.0584596 56.5665 0.0513996C56.5609 0.0490496 56.5557 0.0452895 56.5505 0.0429395C56.5125 0.0250595 56.4725 0.0128396 56.4316 0.00578964C56.4293 0.00531964 56.4265 0.0053093 56.4237 0.0048393C56.4063 0.0024893 56.3884 0.000599581 56.3705 0.000129581C56.364 -0.000340419 56.3579 0.000619293 56.3513 0.000619293C56.3372 0.000619293 56.3236 0.00106943 56.309 0.00247943C56.3005 0.00341943 56.2921 0.00531948 56.2836 0.00672948C56.2742 0.00813948 56.2653 0.00906949 56.2559 0.0109495C56.2531 0.0118895 56.2507 0.0123694 56.2479 0.0133094C56.239 0.0156594 56.23 0.0184692 56.2216 0.0212892C56.2098 0.0250492 56.1985 0.0283595 56.1877 0.0330595C56.1844 0.0339995 56.1811 0.0349492 56.1783 0.0363592L37.5 8.0233L18.8217 0.0363592C18.8184 0.0349492 18.8156 0.0339995 18.8123 0.0330595C18.801 0.0283595 18.7897 0.0245792 18.7784 0.0212892C18.7695 0.0184692 18.7606 0.0156594 18.7516 0.0133094C18.7493 0.0123694 18.7469 0.0118895 18.7441 0.0109495C18.7347 0.00906949 18.7253 0.0081293 18.7159 0.0062393C18.7075 0.0052993 18.699 0.00341943 18.691 0.00247943C18.676 0.00106943 18.6614 0.000619293 18.6468 0.000619293C18.6412 0.000619293 18.6356 0.000129581 18.6295 0.000129581C18.6102 0.000599581 18.5905 0.00247945 18.5707 0.00529945C18.5702 0.00576945 18.5693 0.00578964 18.5688 0.00578964C18.527 0.0123696 18.4866 0.0250792 18.449 0.0434192C18.4448 0.0452992 18.441 0.0476496 18.4368 0.0499996C18.4227 0.0570496 18.4086 0.0645696 18.395 0.0735096C18.3888 0.0772696 18.3832 0.0819696 18.3776 0.0861996C18.3663 0.0941996 18.3555 0.102209 18.3451 0.111149C18.3432 0.113029 18.3409 0.114449 18.339 0.115859C18.3343 0.120089 18.3306 0.125259 18.3259 0.129489C18.3202 0.135139 18.3136 0.140319 18.308 0.146429L0.11937 19.9199C0.11655 19.9228 0.11561 19.9256 0.11326 19.9279C0.0907 19.9538 0.07003 19.9816 0.05406 20.0112C0.05359 20.0121 0.0535799 20.0126 0.0531099 20.0126C0.0371299 20.0427 0.0258501 20.0742 0.0169201 20.1062C0.0155101 20.1109 0.0136301 20.1151 0.0126901 20.1203C0.00470007 20.1514 0.00094 20.1838 0 20.2163V20.2337C0.00047 20.2666 0.00377007 20.299 0.0112901 20.3315C0.0117601 20.3334 0.0117499 20.3353 0.0122199 20.3367C0.0126899 20.34 0.0145801 20.3428 0.0155201 20.3461C0.0188101 20.3588 0.02162 20.371 0.02632 20.3837L7.4433 40.883C7.4438 40.884 7.4443 40.8849 7.4447 40.8854C7.4476 40.8934 7.4523 40.9 7.4555 40.9075C7.4659 40.9319 7.4772 40.9555 7.4913 40.9776C7.4978 40.9874 7.5063 40.9959 7.5138 41.0053C7.5274 41.0232 7.5415 41.0411 7.558 41.0566C7.5608 41.0594 7.5627 41.0632 7.566 41.066L37.1945 67.8819C37.1959 67.8829 37.1969 67.8838 37.1983 67.8852C37.203 67.8885 37.2067 67.8918 37.2105 67.8946C37.2129 67.8975 37.2166 67.9003 37.2199 67.9026C37.2274 67.9087 37.2364 67.9139 37.2444 67.9196C37.2495 67.9229 37.2533 67.9266 37.2589 67.9299C37.2608 67.9313 37.2617 67.9322 37.2641 67.9337C37.2678 67.936 37.2716 67.9374 37.2754 67.9393C37.2786 67.9412 37.2815 67.9435 37.2838 67.9454C37.2895 67.9482 37.2951 67.9496 37.2998 67.952C37.3097 67.9572 37.3205 67.9619 37.3303 67.9666C37.3355 67.9685 37.3402 67.9704 37.3449 67.9718C37.3487 67.9732 37.3524 67.9746 37.3562 67.976C37.36 67.9774 37.3632 67.9779 37.367 67.9793C37.3792 67.9831 37.3924 67.9859 37.4051 67.9887C37.4098 67.9896 37.4154 67.9915 37.4196 67.9925C37.4234 67.9929 37.4272 67.9934 37.4314 67.9939C37.4342 67.9944 37.4375 67.9953 37.4403 67.9958C37.4591 67.9981 37.4784 67.9995 37.4967 67.9995C37.4977 67.9995 37.4981 68 37.4995 68C37.4995 68 37.5019 67.9995 37.5028 67.9995C37.5212 67.9995 37.5395 67.9981 37.5583 67.9958C37.5616 67.9953 37.5653 67.9944 37.5686 67.9939C37.5724 67.9934 37.5752 67.9929 37.5794 67.9925C37.5846 67.9915 37.5893 67.9896 37.5945 67.9887C37.6072 67.9859 37.6199 67.9831 37.6325 67.9793C37.6363 67.9779 37.64 67.9774 37.6438 67.976C37.6476 67.9746 37.6509 67.9732 37.6546 67.9718C37.6598 67.9704 37.664 67.9685 37.6683 67.9666C37.6791 67.9619 37.6899 67.9572 37.7002 67.952C37.7049 67.9496 37.7105 67.9482 37.7148 67.9454C37.7185 67.9435 37.7209 67.9412 37.7242 67.9393C37.7279 67.9374 37.7317 67.936 37.7355 67.9337C37.7373 67.9322 37.7392 67.9313 37.7411 67.9299C37.7463 67.9266 37.75 67.9224 37.7557 67.9196C37.7637 67.9134 37.7721 67.9087 37.7796 67.9026C37.7829 67.9003 37.7857 67.8975 37.7895 67.8946C37.7933 67.8918 37.7966 67.8885 37.8003 67.8852C37.8022 67.8838 37.8036 67.8829 37.805 67.8819L67.434 41.066C67.4368 41.0632 67.4387 41.0594 67.442 41.0566C67.458 41.0411 67.4726 41.0232 67.4862 41.0053C67.4937 40.9959 67.5022 40.9874 67.5083 40.9776C67.5229 40.9555 67.5341 40.9319 67.5445 40.9075C67.5477 40.9 67.5525 40.8934 67.5553 40.8854C67.5553 40.8849 67.5562 40.884 67.5562 40.883L74.9737 20.3837C74.9779 20.371 74.9807 20.3588 74.9845 20.3461C74.9854 20.3428 74.9868 20.34 74.9878 20.3367C74.9883 20.3353 74.9878 20.3334 74.9883 20.3315C74.9963 20.299 74.9995 20.2666 75 20.2337Z" fill="#454545"/>
</svg>
