<svg width="700" height="697" viewBox="0 0 700 697" fill="none" xmlns="http://www.w3.org/2000/svg">
<g clip-path="url(#clip0_30140_362)">
<path fill-rule="evenodd" clip-rule="evenodd" d="M444.864 314.404L619.239 418.42L357.738 678.341L444.864 314.404ZM80.7571 418.42L255.132 314.404L342.262 678.341L80.7571 418.42ZM172.099 13.8241L251.338 299.931L11.6941 205.327L172.099 13.8241ZM344.315 89.7212L321.138 145.104L258.672 294.362L180.718 12.8936L344.315 89.7212ZM519.282 12.8936L441.324 294.362L378.858 145.104L355.68 89.7212L519.282 12.8936ZM448.662 299.931L527.897 13.8241L688.302 205.327L448.662 299.931ZM624.221 410.772L452.496 308.334L688.692 215.09L624.221 410.772ZM247.504 308.334L75.7742 410.772L11.308 215.09L247.504 308.334ZM354.242 656.25V108.626L437.639 307.895L365.62 608.721L354.242 656.25ZM262.356 307.895L345.754 108.626V656.25L334.376 608.721L262.356 307.895ZM700 207.395C700 207.338 700 207.275 699.996 207.217C699.987 206.884 699.952 206.551 699.882 206.233C699.873 206.181 699.855 206.137 699.842 206.089C699.759 205.76 699.649 205.437 699.504 205.129C699.5 205.129 699.5 205.125 699.496 205.114C699.342 204.811 699.154 204.527 698.943 204.262C698.921 204.237 698.908 204.208 698.886 204.179L529.121 1.50093C529.073 1.43825 529.011 1.38988 528.959 1.33203C528.915 1.2838 528.88 1.23093 528.836 1.18754C528.814 1.16825 528.796 1.15856 528.774 1.13927C528.682 1.04767 528.586 0.970404 528.485 0.893264C528.428 0.84505 528.367 0.79699 528.31 0.748777C528.191 0.666814 528.073 0.599217 527.954 0.526897C527.902 0.50279 527.853 0.464194 527.805 0.440088C527.45 0.256878 527.077 0.131623 526.695 0.0593025C526.673 0.0544812 526.647 0.0544129 526.621 0.0495917C526.459 0.025485 526.292 0.0061527 526.125 0.00133137C526.064 -0.00348994 526.007 0.00633396 525.945 0.00633396C525.814 0.00633396 525.686 0.0109975 525.551 0.0254615C525.472 0.0351042 525.393 0.0545495 525.314 0.0690135C525.226 0.0834774 525.143 0.0929858 525.055 0.112271C525.029 0.121913 525.007 0.126759 524.98 0.136402C524.897 0.160507 524.814 0.189281 524.735 0.218209C524.625 0.256778 524.52 0.290645 524.419 0.338859C524.388 0.348501 524.357 0.358236 524.331 0.3727L350 82.2386L175.669 0.3727C175.638 0.358236 175.612 0.348501 175.581 0.338859C175.476 0.290645 175.371 0.251957 175.265 0.218209C175.182 0.189281 175.099 0.160507 175.015 0.136402C174.993 0.126759 174.971 0.121913 174.945 0.112271C174.857 0.0929858 174.77 0.0832961 174.682 0.0640109C174.603 0.0543682 174.524 0.0351042 174.449 0.0254615C174.309 0.0109975 174.173 0.00633396 174.037 0.00633396C173.985 0.00633396 173.932 0.00133137 173.875 0.00133137C173.695 0.0061527 173.511 0.0253721 173.327 0.0542999C173.322 0.0591213 173.314 0.0593025 173.309 0.0593025C172.919 0.126801 172.542 0.257059 172.191 0.44509C172.151 0.464375 172.116 0.488372 172.077 0.512479C171.945 0.584798 171.813 0.66188 171.686 0.753485C171.629 0.792056 171.576 0.84016 171.524 0.883552C171.419 0.965515 171.318 1.04767 171.221 1.13927C171.204 1.15856 171.182 1.17307 171.164 1.18754C171.12 1.23093 171.085 1.28392 171.041 1.32731C170.989 1.38517 170.927 1.43825 170.875 1.50093L1.11412 204.179C1.08781 204.208 1.07903 204.237 1.0571 204.262C0.846554 204.527 0.653657 204.811 0.504521 205.114C0.500135 205.125 0.500073 205.129 0.495686 205.129C0.346551 205.437 0.241296 205.76 0.157956 206.089C0.144797 206.137 0.127239 206.181 0.118467 206.233C0.0438988 206.551 0.0087727 206.884 0 207.217V207.395C0.00438635 207.733 0.0351668 208.065 0.105348 208.398C0.109735 208.417 0.109663 208.437 0.114049 208.451C0.118436 208.484 0.136065 208.513 0.144837 208.547C0.175542 208.677 0.201771 208.803 0.245635 208.933L69.4711 419.051C69.4754 419.061 69.4798 419.07 69.4842 419.075C69.5105 419.157 69.5544 419.225 69.5851 419.301C69.6816 419.552 69.7868 419.794 69.9184 420.02C69.9798 420.121 70.0588 420.209 70.129 420.305C70.2562 420.487 70.3878 420.671 70.5413 420.83C70.5676 420.859 70.5851 420.897 70.6158 420.926L347.149 695.79C347.162 695.799 347.171 695.809 347.184 695.823C347.228 695.857 347.263 695.891 347.298 695.92C347.32 695.949 347.355 695.978 347.386 696.002C347.456 696.065 347.539 696.117 347.614 696.175C347.662 696.209 347.697 696.247 347.75 696.281C347.768 696.296 347.776 696.305 347.798 696.32C347.833 696.344 347.868 696.359 347.903 696.379C347.934 696.397 347.96 696.421 347.982 696.44C348.035 696.469 348.088 696.484 348.131 696.509C348.224 696.561 348.324 696.61 348.417 696.657C348.465 696.677 348.509 696.697 348.553 696.711C348.588 696.725 348.623 696.74 348.658 696.754C348.693 696.769 348.724 696.773 348.759 696.787C348.873 696.827 348.996 696.855 349.114 696.884C349.158 696.894 349.211 696.913 349.25 696.922C349.285 696.928 349.32 696.933 349.36 696.937C349.386 696.942 349.417 696.951 349.443 696.957H349.452C349.627 696.98 349.798 696.995 349.969 696.995C349.978 696.995 349.982 697 349.996 697C349.996 697 349.996 696.995 350 696.995C350 696.995 350 697 350.004 697C350.004 697 350.018 696.995 350.026 696.995C350.197 696.995 350.368 696.98 350.544 696.957H350.553C350.583 696.951 350.61 696.942 350.641 696.937C350.676 696.933 350.702 696.928 350.741 696.922C350.79 696.913 350.833 696.894 350.882 696.884C351 696.855 351.119 696.827 351.237 696.787C351.272 696.773 351.307 696.769 351.342 696.754C351.377 696.74 351.408 696.725 351.443 696.711C351.491 696.697 351.531 696.677 351.57 696.657C351.671 696.61 351.772 696.561 351.869 696.509C351.912 696.484 351.965 696.469 352.005 696.44C352.04 696.421 352.062 696.397 352.092 696.379C352.127 696.359 352.163 696.344 352.198 696.32C352.215 696.305 352.233 696.296 352.25 696.281C352.299 696.247 352.334 696.204 352.386 696.175C352.461 696.112 352.54 696.065 352.61 696.002C352.641 695.978 352.667 695.949 352.702 695.92C352.737 695.891 352.768 695.857 352.803 695.823C352.82 695.809 352.834 695.799 352.847 695.79L629.384 420.926C629.411 420.897 629.428 420.859 629.459 420.83C629.608 420.671 629.744 420.487 629.871 420.305C629.941 420.209 630.02 420.121 630.077 420.02C630.213 419.794 630.318 419.552 630.415 419.301C630.446 419.225 630.49 419.157 630.516 419.075C630.516 419.07 630.525 419.061 630.525 419.051L699.755 208.933C699.794 208.803 699.82 208.677 699.855 208.547C699.864 208.513 699.877 208.484 699.886 208.451C699.89 208.437 699.886 208.417 699.891 208.398C699.965 208.065 699.996 207.733 700 207.395Z" fill="#DBAF96" fill-opacity="0.06"/>
</g>
<defs>
<clipPath id="clip0_30140_362">
<rect width="700" height="697" fill="white"/>
</clipPath>
</defs>
</svg>
