<svg width="25" height="24" viewBox="0 0 25 24" fill="none" xmlns="http://www.w3.org/2000/svg">
<rect width="25" height="24" fill="#F5F5F5"/>
<rect width="1440" height="6137" transform="translate(-1157 -5608)" fill="white"/>
<path d="M12.5 0.959961C6.15464 0.959961 1 5.90842 1 12C1 18.0915 6.15464 23.04 12.5 23.04C18.8454 23.04 24 18.0915 24 12C24 5.90842 18.8454 0.959961 12.5 0.959961ZM12.5 1.91996C18.3049 1.91996 23 6.42724 23 12C23 17.5727 18.3049 22.08 12.5 22.08C6.69508 22.08 2 17.5727 2 12C2 6.42724 6.69508 1.91996 12.5 1.91996ZM17.0439 6.73684C16.7019 6.73684 16.3177 6.81288 15.8682 6.9684C15.1702 7.20984 6.96037 10.5562 6.02637 10.9368C5.49237 11.1548 4.49805 11.5601 4.49805 12.5268C4.49805 13.1676 4.88918 13.626 5.65918 13.89C6.07318 14.0316 7.05645 14.3177 7.62695 14.4684C7.86895 14.5322 8.12612 14.565 8.39062 14.565C8.90812 14.565 9.42891 14.4412 9.83691 14.2228C9.83341 14.3034 9.8357 14.3849 9.8457 14.4665C9.9072 14.9705 10.2309 15.4446 10.7109 15.735C11.0249 15.925 13.5897 17.5748 13.9727 17.8368C14.5107 18.206 15.1054 18.4012 15.6914 18.4012C16.8114 18.4012 17.1872 17.2911 17.3682 16.7578C17.6307 15.9835 18.6136 9.68739 18.7246 8.57715C18.8001 7.81635 18.4698 7.18986 17.8408 6.9009C17.6053 6.79194 17.3364 6.73684 17.0439 6.73684ZM17.0439 7.69684C17.1814 7.69684 17.3042 7.71867 17.4082 7.76715C17.6447 7.87611 17.765 8.11901 17.7285 8.48621C17.6075 9.69725 16.627 15.8443 16.418 16.4606C16.239 16.9876 16.0504 17.4412 15.6914 17.4412C15.3324 17.4412 14.9402 17.3204 14.5537 17.055C14.1672 16.79 11.6006 15.1377 11.2441 14.9221C10.9316 14.733 10.6009 14.2616 11.0664 13.8056C11.4499 13.4302 14.3589 10.7198 14.6074 10.4812C14.7924 10.3031 14.7059 10.0884 14.5244 10.0884C14.4619 10.0884 14.3871 10.1137 14.3096 10.1746C14.0056 10.4132 9.76739 13.1358 9.40039 13.3546C9.15739 13.4996 8.78113 13.604 8.39062 13.604C8.22412 13.604 8.05555 13.5849 7.89355 13.5421C7.32955 13.3929 6.37509 13.1149 5.99609 12.9853C5.63159 12.8605 5.49902 12.7409 5.49902 12.5268C5.49902 12.2225 5.94647 12.0124 6.41797 11.82C6.91597 11.6169 15.533 8.10401 16.207 7.87121C16.519 7.76273 16.8044 7.69684 17.0439 7.69684Z" fill="black"/>
</svg>
